<?xml version="1.0" encoding="UTF-8" standalone="no"?>
<svg width="26px" height="26px" viewBox="0 0 26 26" version="1.1" xmlns="http://www.w3.org/2000/svg" xmlns:xlink="http://www.w3.org/1999/xlink">
    <!-- Generator: Sketch 46.2 (44496) - http://www.bohemiancoding.com/sketch -->
    <title>mdpi/Group</title>
    <desc>Created with Sketch.</desc>
    <defs></defs>
    <g id="Page-1" stroke="none" stroke-width="1" fill="none" fill-rule="evenodd">
        <g id="placeSearch" transform="translate(-335.000000, -129.000000)" fill="#7A797B">
            <g id="Group" transform="translate(335.000000, 129.000000)">
                <path d="M17.4351209,15.3895926 C17.4527934,15.4049766 17.4700555,15.4210753 17.4868686,15.4378884 L24.7571718,22.7081916 C25.1500626,23.1010824 25.1484104,23.7397365 24.7634208,24.1247261 L24.1247261,24.7634208 C23.7352865,25.1528604 23.0998821,25.1488622 22.7081916,24.7571718 L15.4378884,17.4868686 C15.4210725,17.4700527 15.4049794,17.4527866 15.3896081,17.4351095 C13.7865212,18.6184774 11.8044409,19.3179704 9.65898521,19.3179704 C4.32447498,19.3179704 0,14.9934954 0,9.65898521 C0,4.32447498 4.32447498,0 9.65898521,0 C14.9934954,0 19.3179704,4.32447498 19.3179704,9.65898521 C19.3179704,11.8044339 18.6184819,13.7865084 17.4351209,15.3895926 Z M9.65898521,17.3861734 C13.9265934,17.3861734 17.3861734,13.9265934 17.3861734,9.65898521 C17.3861734,5.39137703 13.9265934,1.93179704 9.65898521,1.93179704 C5.39137703,1.93179704 1.93179704,5.39137703 1.93179704,9.65898521 C1.93179704,13.9265934 5.39137703,17.3861734 9.65898521,17.3861734 Z" id="Search-Icon"></path>
            </g>
        </g>
    </g>
</svg>