<?xml version="1.0" encoding="UTF-8" standalone="no"?>
<svg width="32px" height="32px" viewBox="0 0 32 32" version="1.1" xmlns="http://www.w3.org/2000/svg" xmlns:xlink="http://www.w3.org/1999/xlink">
    <!-- Generator: Sketch 46.2 (44496) - http://www.bohemiancoding.com/sketch -->
    <title>mdpi/Oval 7 Copy</title>
    <desc>Created with Sketch.</desc>
    <defs></defs>
    <g id="Page-1" stroke="none" stroke-width="1" fill="none" fill-rule="evenodd">
        <g id="mypage" transform="translate(-297.000000, -163.000000)">
            <circle id="Oval-7-Copy" stroke="#CAC9C9" fill="#FFFFFF" cx="313" cy="179" r="15"></circle>
            <g id="photo-camera-3-copy" transform="translate(303.000000, 170.000000)" fill-rule="nonzero" fill="#AAAAAA">
                <path d="M13.2856263,9.99974392 C13.2856263,11.5539052 12.0394251,12.8120359 10.5,12.8120359 C8.96057495,12.8120359 7.71437372,11.5539052 7.71437372,9.99974392 C7.71437372,8.44558259 8.96057495,7.18745198 10.5,7.18745198 C12.0394251,7.18745198 13.2856263,8.44558259 13.2856263,9.99974392 Z M18.9862423,2.95160051 C20.098768,2.95160051 21,3.86145967 21,4.98463508 L21,10.3131882 L21,14.8320102 C21,16.0291933 20.0383984,17 18.8525667,17 L2.14743326,17 C0.961601643,17 0,16.0291933 0,14.8320102 L0,10.3088348 L0,4.98463508 L0,4.98463508 C0,3.86145967 0.901232033,2.95160051 2.0137577,2.95160051 L6.0412731,2.95160051 L6.23100616,2.1418694 C6.51991786,0.88809219 7.62813142,0 8.90451745,0 L12.0997947,0 C13.3761807,0 14.4843943,0.88809219 14.773306,2.1418694 L14.9587269,2.95160051 L18.9862423,2.95160051 Z M4.2,5.88578745 C4.2,5.32419974 3.74722793,4.86709347 3.19096509,4.86709347 C2.63039014,4.86709347 2.17761807,5.32419974 2.17761807,5.88578745 C2.17761807,6.44737516 2.63039014,6.90448143 3.18665298,6.90448143 C3.74722793,6.90883483 4.2,6.45172855 4.2,5.88578745 Z M15.4675565,9.99974392 C15.4675565,7.23098592 13.2425051,4.98463508 10.5,4.98463508 C7.75749487,4.98463508 5.53244353,7.23098592 5.53244353,9.99974392 C5.53244353,12.7685019 7.75749487,15.0148528 10.5,15.0148528 C13.2425051,15.0148528 15.4675565,12.7685019 15.4675565,9.99974392 Z" id="Shape"></path>
            </g>
        </g>
    </g>
</svg>